<svg width="110" height="24" viewBox="0 0 110 24" fill="none" xmlns="http://www.w3.org/2000/svg">
<path d="M17.4909 12.763C17.4617 9.73092 20.1416 8.25576 20.264 8.18706C18.7464 6.11466 16.3941 5.83152 15.5675 5.80891C13.5917 5.6142 11.6754 6.91611 10.669 6.91611C9.64235 6.91611 8.09267 5.82763 6.42231 5.85961C4.27282 5.89071 2.262 7.05639 1.15922 8.86639C-1.1168 12.557 0.580695 17.9805 2.76122 20.9636C3.85201 22.4247 5.12659 24.056 6.79485 23.9985C8.42713 23.9356 9.03669 23.024 11.0064 23.024C12.9579 23.024 13.5304 23.9985 15.232 23.9618C16.9836 23.9356 18.0865 22.4943 19.1391 21.0201C20.3996 19.3455 20.9058 17.6963 20.9259 17.6117C20.8847 17.5986 17.524 16.3972 17.4909 12.763Z" fill="white"/>
<path d="M14.2765 3.84679C15.1544 2.81854 15.7549 1.41962 15.5882 0C14.3177 0.0526957 12.7287 0.823171 11.8137 1.82885C11.0041 2.71505 10.2809 4.16758 10.4679 5.53361C11.8951 5.63327 13.3605 4.85905 14.2765 3.84679Z" fill="white"/>
<path d="M41.1115 18.1166H38.8305L37.581 14.4391H33.2379L32.0477 18.1166H29.827L34.1299 5.59692H36.7875L41.1115 18.1166ZM37.2044 12.8963L36.0743 9.62709C35.9548 9.29311 35.7309 8.50664 35.4004 7.26867H35.3603C35.2286 7.8011 35.0167 8.58758 34.7255 9.62709L33.6155 12.8963H37.2044Z" fill="white"/>
<path d="M52.1767 13.4886C52.1767 15.024 51.7337 16.2374 50.8479 17.1283C50.0544 17.9214 49.069 18.3175 47.8929 18.3175C46.6233 18.3175 45.7113 17.8905 45.1559 17.0362H45.1157V21.7917H42.9743V12.0576C42.9743 11.0924 42.9472 10.1019 42.895 9.08586H44.7783L44.8977 10.5167H44.9379C45.6521 9.43856 46.7359 8.90051 48.1902 8.90051C49.3271 8.90051 50.2763 9.32104 51.0357 10.163C51.797 11.0059 52.1767 12.1141 52.1767 13.4886ZM49.9952 13.5619C49.9952 12.6833 49.7842 11.9589 49.3603 11.3888C48.8973 10.7942 48.2755 10.4969 47.4961 10.4969C46.9678 10.4969 46.4877 10.6626 46.0588 10.989C45.6289 11.3183 45.3476 11.7482 45.2162 12.2806C45.1499 12.529 45.1166 12.7322 45.1166 12.8921V14.3973C45.1166 15.0541 45.3316 15.6081 45.7616 16.0606C46.1914 16.5131 46.7498 16.7389 47.4369 16.7389C48.2434 16.7389 48.8711 16.4473 49.3201 15.8659C49.7701 15.2836 49.9952 14.5159 49.9952 13.5619Z" fill="white"/>
<path d="M63.2609 13.4886C63.2609 15.024 62.8181 16.2374 61.9312 17.1283C61.1385 17.9214 60.1533 18.3175 58.9771 18.3175C57.7076 18.3175 56.7955 17.8905 56.2411 17.0362H56.2009V21.7917H54.0595V12.0576C54.0595 11.0924 54.0324 10.1019 53.9802 9.08586H55.8635L55.9829 10.5167H56.0231C56.7363 9.43856 57.82 8.90051 59.2754 8.90051C60.4115 8.90051 61.3606 9.32104 62.122 10.163C62.8803 11.0059 63.2609 12.1141 63.2609 13.4886ZM61.0793 13.5619C61.0793 12.6833 60.8673 11.9589 60.4435 11.3888C59.9806 10.7942 59.3608 10.4969 58.5804 10.4969C58.051 10.4969 57.5719 10.6626 57.1421 10.989C56.7121 11.3183 56.4319 11.7482 56.3003 12.2806C56.2351 12.529 56.2009 12.7322 56.2009 12.8921V14.3973C56.2009 15.0541 56.4159 15.6081 56.8438 16.0606C57.2737 16.5122 57.8322 16.7389 58.5212 16.7389C59.3277 16.7389 59.9554 16.4473 60.4044 15.8659C60.8543 15.2836 61.0793 14.5159 61.0793 13.5619Z" fill="white"/>
<path d="M75.6542 14.6033C75.6542 15.6683 75.2595 16.5347 74.467 17.2037C73.5962 17.9345 72.384 18.2996 70.826 18.2996C69.3877 18.2996 68.2347 18.04 67.3619 17.5198L67.858 15.848C68.7981 16.3805 69.8297 16.6476 70.9536 16.6476C71.7602 16.6476 72.388 16.4764 72.839 16.1358C73.2879 15.7953 73.5119 15.3381 73.5119 14.7679C73.5119 14.26 73.3271 13.8319 72.9565 13.4847C72.5878 13.1376 71.9721 12.8149 71.1124 12.5168C68.772 11.6992 67.603 10.5015 67.603 8.92672C67.603 7.89758 68.0127 7.05364 68.8334 6.39707C69.651 5.73949 70.7418 5.41113 72.1057 5.41113C73.322 5.41113 74.3324 5.60959 75.139 6.00563L74.6036 7.6408C73.8503 7.25685 72.9986 7.06502 72.0455 7.06502C71.2921 7.06502 70.7036 7.23899 70.2817 7.58521C69.9252 7.8947 69.7463 8.27202 69.7463 8.71891C69.7463 9.21375 69.9502 9.6229 70.3601 9.94463C70.7166 10.2419 71.3644 10.5638 72.3045 10.9108C73.4547 11.3445 74.2993 11.8516 74.8427 12.433C75.3841 13.0125 75.6542 13.7379 75.6542 14.6033Z" fill="white"/>
<path d="M82.7362 10.5905H80.3758V14.9735C80.3758 16.0883 80.7917 16.6452 81.6254 16.6452C82.008 16.6452 82.3255 16.6142 82.5766 16.552L82.6358 18.0751C82.214 18.2229 81.6585 18.2972 80.9705 18.2972C80.1247 18.2972 79.4639 18.0554 78.9867 17.5728C78.5116 17.0892 78.2727 16.2784 78.2727 15.1391V10.5886H76.8665V9.08332H78.2727V7.43044L80.3758 6.83594V9.08332H82.7362V10.5905Z" fill="white"/>
<path d="M93.3864 13.5243C93.3864 14.9119 92.9626 16.0512 92.1169 16.9421C91.23 17.8594 90.0529 18.3166 88.5853 18.3166C87.1712 18.3166 86.0452 17.8772 85.2055 16.9986C84.3658 16.1199 83.946 15.0107 83.946 13.6739C83.946 12.275 84.3779 11.1292 85.2446 10.2383C86.1095 9.34639 87.2766 8.90051 88.7441 8.90051C90.1583 8.90051 91.2963 9.33976 92.155 10.2194C92.9767 11.0727 93.3864 12.1743 93.3864 13.5243ZM91.1646 13.5893C91.1646 12.7567 90.9748 12.0427 90.5902 11.4472C90.1412 10.7265 89.4994 10.3672 88.6676 10.3672C87.807 10.3672 87.153 10.7275 86.704 11.4472C86.3194 12.0435 86.1296 12.7689 86.1296 13.6269C86.1296 14.4594 86.3194 15.1735 86.704 15.7681C87.1671 16.4886 87.814 16.8481 88.6486 16.8481C89.4662 16.8481 90.108 16.4811 90.5711 15.7492C90.9658 15.1425 91.1646 14.4208 91.1646 13.5893Z" fill="white"/>
<path d="M100.352 10.8498C100.14 10.8131 99.9146 10.7942 99.6774 10.7942C98.9242 10.7942 98.3416 11.0605 97.9318 11.5939C97.5753 12.0643 97.3964 12.6588 97.3964 13.3767V18.1134H95.2561L95.2762 11.9288C95.2762 10.8884 95.249 9.94089 95.1958 9.08673H97.0609L97.1393 10.8139H97.1985C97.4246 10.2204 97.7811 9.74244 98.2692 9.38398C98.7464 9.06138 99.2617 8.90051 99.8171 8.90051C100.015 8.90051 100.194 8.91362 100.352 8.93724V10.8498Z" fill="white"/>
<path d="M109.922 13.1728C109.922 13.5322 109.897 13.8351 109.843 14.0825H103.419C103.444 14.9744 103.755 15.6565 104.351 16.1268C104.893 16.5474 105.593 16.7581 106.452 16.7581C107.404 16.7581 108.272 16.6159 109.052 16.3309L109.387 17.7233C108.475 18.0958 107.399 18.2812 106.156 18.2812C104.662 18.2812 103.488 17.8692 102.635 17.046C101.783 16.2228 101.356 15.1173 101.356 13.7307C101.356 12.3694 101.753 11.2357 102.547 10.3317C103.379 9.36639 104.503 8.88379 105.917 8.88379C107.306 8.88379 108.358 9.36639 109.072 10.3317C109.637 11.0983 109.922 12.0467 109.922 13.1728ZM107.88 12.6526C107.894 12.0579 107.754 11.5444 107.464 11.1106C107.093 10.5528 106.524 10.2743 105.757 10.2743C105.057 10.2743 104.488 10.5462 104.053 11.0919C103.696 11.5255 103.484 12.0457 103.419 12.6516L107.88 12.6526Z" fill="white"/>
</svg>
