<svg width="19" height="14" viewBox="0 0 19 14" fill="none" xmlns="http://www.w3.org/2000/svg">
<path d="M0.389618 1.66314C2.96628 3.65496 7.48753 7.15917 8.81638 8.25179C8.99477 8.39926 9.1861 8.47423 9.38473 8.47423C9.58296 8.47423 9.77397 8.39996 9.95195 8.25319C11.2819 7.15951 15.8032 3.65496 18.3799 1.66314C18.5403 1.53937 18.5648 1.32182 18.4349 1.1705C18.1347 0.820845 17.687 0.620361 17.2072 0.620361H1.56223C1.0825 0.620361 0.634817 0.820845 0.334616 1.17054C0.204737 1.32182 0.229195 1.53937 0.389618 1.66314Z" fill="white"/>
<path d="M18.5447 2.74056C18.4061 2.68165 18.243 2.7022 18.1276 2.79217C15.2702 5.00324 11.6232 7.83739 10.4758 8.78114C9.83183 9.31177 8.93804 9.31177 8.29254 8.78043C7.06951 7.7746 2.97413 4.59672 0.641523 2.79214C0.525396 2.70217 0.361929 2.68232 0.224424 2.74053C0.0861853 2.79913 -0.00244141 2.92535 -0.00244141 3.06445V12.0427C-0.00244141 12.8303 0.699202 13.4707 1.56208 13.4707H17.2071C18.07 13.4707 18.7716 12.8303 18.7716 12.0427V3.06445C18.7716 2.92535 18.683 2.7988 18.5447 2.74056Z" fill="white"/>
</svg>
