<svg width="14" height="24" viewBox="0 0 14 24" fill="none" xmlns="http://www.w3.org/2000/svg">
<path d="M13.1006 0.00483559L10.0718 0C6.66913 0 4.47014 2.24492 4.47014 5.71953V8.35662H1.42485C1.1617 8.35662 0.948608 8.5689 0.948608 8.83075V12.6516C0.948608 12.9134 1.16195 13.1255 1.42485 13.1255H4.47014V22.7667C4.47014 23.0285 4.68324 23.2406 4.94639 23.2406H8.91963C9.18278 23.2406 9.39587 23.0283 9.39587 22.7667V13.1255H12.9565C13.2197 13.1255 13.4328 12.9134 13.4328 12.6516L13.4342 8.83075C13.4342 8.70502 13.3839 8.58462 13.2948 8.49564C13.2056 8.40667 13.0841 8.35662 12.9577 8.35662H9.39587V6.12113C9.39587 5.04666 9.65319 4.50121 11.0598 4.50121L13.1001 4.50048C13.363 4.50048 13.5761 4.2882 13.5761 4.02659V0.478723C13.5761 0.21736 13.3633 0.00531915 13.1006 0.00483559Z" fill="#FDF8F2"/>
</svg>
