<svg width="23" height="23" viewBox="0 0 23 23" fill="none" xmlns="http://www.w3.org/2000/svg">
<path d="M15.6432 0.661621H7.38328C3.58233 0.661621 0.5 3.72869 0.5 7.51082V15.7299C0.5 19.512 3.58233 22.5791 7.38328 22.5791H15.6432C19.4442 22.5791 22.5265 19.512 22.5265 15.7299V7.51082C22.5265 3.72869 19.4442 0.661621 15.6432 0.661621ZM20.4615 15.7299C20.4615 18.3737 18.3002 20.5243 15.6432 20.5243H7.38328C4.72634 20.5243 2.56499 18.3737 2.56499 15.7299V7.51082C2.56499 4.86703 4.72634 2.71638 7.38328 2.71638H15.6432C18.3002 2.71638 20.4615 4.86703 20.4615 7.51082V15.7299Z" fill="#FDF8F2"/>
<path d="M11.5244 6.15356C8.48341 6.15356 6.01782 8.60695 6.01782 11.6329C6.01782 14.6589 8.48341 17.1123 11.5244 17.1123C14.5655 17.1123 17.0311 14.6589 17.0311 11.6329C17.0311 8.60695 14.5655 6.15356 11.5244 6.15356ZM11.5244 15.0575C9.62742 15.0575 8.08281 13.5206 8.08281 11.6329C8.08281 9.74392 9.62742 8.20832 11.5244 8.20832C13.4215 8.20832 14.9661 9.74392 14.9661 11.6329C14.9661 13.5206 13.4215 15.0575 11.5244 15.0575Z" fill="#FDF8F2"/>
<path d="M17.4178 6.47739C17.824 6.47739 18.1534 6.14967 18.1534 5.74541C18.1534 5.34115 17.824 5.01343 17.4178 5.01343C17.0115 5.01343 16.6821 5.34115 16.6821 5.74541C16.6821 6.14967 17.0115 6.47739 17.4178 6.47739Z" fill="#FDF8F2"/>
</svg>
