<svg width="21" height="21" viewBox="0 0 21 21" fill="none" xmlns="http://www.w3.org/2000/svg">
<path d="M20.9435 20.7637V20.7628H20.9486V13.3056C20.9486 9.65741 20.1593 6.84717 15.8732 6.84717C13.8127 6.84717 12.43 7.97228 11.8655 9.03894H11.8059V7.18775H7.74194V20.7628H11.9736V14.0409C11.9736 12.2711 12.3108 10.5597 14.5134 10.5597C16.6837 10.5597 16.7161 12.5795 16.7161 14.1545V20.7637H20.9435Z" fill="#FDF8F2"/>
<path d="M0.850708 7.2124H5.08747V20.7875H0.850708V7.2124Z" fill="#FDF8F2"/>
<path d="M2.98033 0.453125C1.6257 0.453125 0.526489 1.54689 0.526489 2.89482C0.526489 4.24276 1.6257 5.3594 2.98033 5.3594C4.33497 5.3594 5.43418 4.24276 5.43418 2.89482C5.43333 1.54689 4.33412 0.453125 2.98033 0.453125V0.453125Z" fill="#FDF8F2"/>
</svg>
