<svg width="56" height="56" viewBox="0 0 56 56" fill="none" xmlns="http://www.w3.org/2000/svg">
<path fill-rule="evenodd" clip-rule="evenodd" d="M27.7693 11.0003C22.1639 10.9608 17.5077 15.3068 17.172 20.8919C16.8363 26.477 20.9384 31.3475 26.5083 31.9773V39.1934C26.5083 39.8885 27.0729 40.452 27.7693 40.452C28.4658 40.452 29.0303 39.8885 29.0303 39.1934V31.9773C34.6003 31.3475 38.7024 26.477 38.3667 20.8919C38.0309 15.3068 33.3748 10.9608 27.7693 11.0003ZM26.6764 16.8234C24.7422 16.8234 23.1717 18.3835 23.1624 20.314C23.1624 21.0091 22.5979 21.5726 21.9014 21.5726C21.205 21.5726 20.6405 21.0091 20.6405 20.314C20.6497 16.9932 23.3494 14.3062 26.6764 14.3062C27.3728 14.3062 27.9374 14.8697 27.9374 15.5648C27.9374 16.2599 27.3728 16.8234 26.6764 16.8234ZM34.1918 34.1423C34.5125 33.5373 35.2546 33.2929 35.8731 33.5885C37.9375 34.3821 39.3627 36.2876 39.5384 38.4887C39.5384 42.1975 34.4944 45 27.7692 45C21.0439 45 16 42.1975 16 38.4887C16.2064 36.3189 17.6264 34.4529 19.6653 33.6724C20.2874 33.3573 21.0477 33.6052 21.3634 34.2262C21.6791 34.8472 21.4307 35.606 20.8085 35.9211C19.329 36.6763 18.4883 37.6161 18.4883 38.4887C18.4883 40.3011 22.473 42.3821 27.786 42.3821C33.0989 42.3821 37.0668 40.2844 37.0668 38.388C37.0668 37.4986 36.2262 36.5756 34.7466 35.8205C34.1332 35.5065 33.886 34.759 34.1918 34.1423Z" fill="#FCFF61"/>
</svg>
