<svg width="193" height="36" viewBox="0 0 193 36" fill="none" xmlns="http://www.w3.org/2000/svg">
<g clip-path="url(#clip0_11_215)">
<path d="M76.774 9.4897L72.4714 15.4584V15.4647L68.2302 9.48657H65.4324V23.3864H68.614V14.6165L72.0721 19.6462H72.8737L76.3748 14.6478V23.3833H79.5411V9.4897H76.774Z" fill="#FCFF61"/>
<path d="M88.3153 12.8233L86.3898 18.2098L86.1072 19.4555L85.8185 18.2098L83.8499 12.8139H80.6007L84.4519 22.7388L84.3106 23.1394C83.9912 24.0502 83.592 24.4352 82.6246 24.4352H80.8925V27.0142H82.6891C85.0446 27.0142 86.3375 26.5447 87.6121 23.2114L91.6045 12.8076L88.3153 12.8295V12.8233Z" fill="#FCFF61"/>
<path d="M98.9353 15.7558V18.3411H102.587C102.194 19.8653 100.882 20.7417 99.055 20.7417C96.85 20.7417 95.0134 19.1893 95.0134 16.4287C95.0134 13.6682 96.85 12.1063 99.055 12.1063C100.75 12.1063 102.037 12.9139 102.697 14.2722H105.925C105.354 10.989 102.016 9.14233 99.1472 9.14233C95.1056 9.14233 91.8348 12.3693 91.8348 16.4193C91.8348 20.4694 95.1056 23.7088 99.0735 23.7088C103.557 23.7088 106.165 20.6384 106.116 15.7558H98.9322H98.9353Z" fill="#FCFF61"/>
<path d="M112.589 12.8013C111.376 12.8013 110.605 13.4116 110.132 14.2942V12.8013H107.175V23.3897H110.274V18.5164C110.274 16.554 111.207 15.4773 112.761 15.4773H113.796V12.8013H112.589Z" fill="#FCFF61"/>
<path d="M122.487 12.8014V14.1598C121.858 13.0737 120.623 12.4634 119.088 12.4634C116.351 12.4634 114.324 15.0048 114.324 18.0972C114.324 21.1895 116.321 23.7372 119.106 23.7372C120.623 23.7372 121.846 23.1269 122.475 22.0502V23.3867H125.414V12.7983H122.484L122.487 12.8014ZM119.859 20.8358C118.547 20.8358 117.38 19.8937 117.38 18.0972C117.38 16.3006 118.504 15.3554 119.868 15.3554C121.231 15.3554 122.355 16.5729 122.355 18.0972C122.355 19.6214 121.274 20.8358 119.859 20.8358Z" fill="#FCFF61"/>
<path d="M132.684 12.4663C131.249 12.4663 130.018 13.1298 129.425 14.0813V12.8043H126.477V23.3928H129.566V18.1408C129.566 16.2503 130.638 15.3521 131.815 15.3521C132.991 15.3521 133.746 16.025 133.746 17.7809V23.3928H136.836V17.712C136.836 14.4381 135.512 12.4694 132.684 12.4694V12.4663Z" fill="#FCFF61"/>
<path d="M145.899 8.98901V12.9045L145.957 14.0688C145.457 13.3208 144.351 12.4632 142.88 12.4632C139.821 12.4632 137.896 15.0047 137.896 18.097C137.896 21.1893 139.879 23.7371 142.849 23.7371C144.443 23.7371 145.475 22.8701 146.037 22.05V23.3865H148.97V8.98901H145.899ZM143.42 20.8482C141.916 20.8482 140.933 19.6494 140.933 18.097C140.933 16.5446 141.995 15.3552 143.42 15.3552C144.845 15.3552 145.917 16.5633 145.917 18.097C145.917 19.6306 144.821 20.8482 143.42 20.8482Z" fill="#FCFF61"/>
<path d="M166.97 9.48975L164.676 17.5148L164.329 19.0359H164.298L164.025 17.6056L161.85 9.48975H158.497L156.313 17.6369L156.083 19.0359H156.03L155.72 17.665L153.377 9.48975H150.026L154.397 23.3896H157.455L160.179 13.906L162.897 23.3896H165.956L170.326 9.48975H166.967H166.97Z" fill="#FCFF61"/>
<path d="M177.513 12.8014V14.1598C176.883 13.0737 175.649 12.4634 174.116 12.4634C171.377 12.4634 169.35 15.0048 169.35 18.0972C169.35 21.1895 171.346 23.7372 174.131 23.7372C175.649 23.7372 176.871 23.1269 177.504 22.0502V23.3867H180.44V12.7983H177.51L177.513 12.8014ZM174.887 20.8358C173.569 20.8358 172.409 19.8937 172.409 18.0972C172.409 16.3006 173.533 15.3554 174.896 15.3554C176.26 15.3554 177.384 16.5729 177.384 18.0972C177.384 19.6214 176.3 20.8358 174.887 20.8358Z" fill="#FCFF61"/>
<path d="M189.211 12.8233L187.288 18.2098L187.006 19.4555L186.717 18.2098L184.748 12.8139H181.499L185.35 22.7388L185.209 23.1394C184.89 24.0502 184.484 24.4352 183.523 24.4352H181.788V27.0142H183.584C185.94 27.0142 187.236 26.5447 188.51 23.2114L192.5 12.8076L189.211 12.8295V12.8233Z" fill="#FCFF61"/>
<path d="M42.387 0L37.9707 19.5775H36.8098L39.1868 0H25.4774L21.0611 19.5775H19.9002L22.2773 0H6.72822L0.5 36H24.9983L27.8268 23.4491H28.9907L27.4675 36H52.0118L58.24 0H42.387Z" fill="#FCFF61"/>
</g>
<defs>
<clipPath id="clip0_11_215">
<rect width="192" height="36" fill="white" transform="translate(0.5)"/>
</clipPath>
</defs>
</svg>
