<svg width="192" height="36" viewBox="0 0 192 36" fill="none" xmlns="http://www.w3.org/2000/svg">
<g clip-path="url(#clip0_11_300)">
<path d="M76.274 9.48982L71.9714 15.4585V15.4648L67.7302 9.48669H64.9324V23.3865H68.114V14.6166L71.5721 19.6463H72.3737L75.8748 14.6479V23.3834H79.0411V9.48982H76.274Z" fill="#0C30EF"/>
<path d="M87.8153 12.8233L85.8898 18.2098L85.6072 19.4555L85.3185 18.2098L83.3499 12.8139H80.1007L83.9519 22.7388L83.8106 23.1394C83.4912 24.0502 83.092 24.4352 82.1246 24.4352H80.3925V27.0142H82.1891C84.5446 27.0142 85.8375 26.5447 87.1121 23.2114L91.1045 12.8076L87.8153 12.8295V12.8233Z" fill="#0C30EF"/>
<path d="M98.4353 15.7559V18.3412H102.087C101.694 19.8655 100.382 20.7418 98.555 20.7418C96.35 20.7418 94.5134 19.1894 94.5134 16.4288C94.5134 13.6683 96.35 12.1065 98.555 12.1065C100.25 12.1065 101.537 12.914 102.197 14.2723H105.425C104.854 10.9891 101.516 9.14246 98.6472 9.14246C94.6056 9.14246 91.3348 12.3694 91.3348 16.4195C91.3348 20.4695 94.6056 23.709 98.5735 23.709C103.057 23.709 105.665 20.6385 105.616 15.7559H98.4322H98.4353Z" fill="#0C30EF"/>
<path d="M112.089 12.8014C110.876 12.8014 110.105 13.4117 109.632 14.2943V12.8014H106.675V23.3898H109.774V18.5166C109.774 16.5541 110.707 15.4774 112.261 15.4774H113.296V12.8014H112.089Z" fill="#0C30EF"/>
<path d="M121.987 12.8014V14.1598C121.358 13.0737 120.123 12.4634 118.588 12.4634C115.851 12.4634 113.824 15.0048 113.824 18.0972C113.824 21.1895 115.821 23.7372 118.606 23.7372C120.123 23.7372 121.346 23.1269 121.975 22.0502V23.3867H124.914V12.7983H121.984L121.987 12.8014ZM119.359 20.8358C118.047 20.8358 116.88 19.8937 116.88 18.0972C116.88 16.3006 118.004 15.3554 119.368 15.3554C120.731 15.3554 121.855 16.5729 121.855 18.0972C121.855 19.6214 120.774 20.8358 119.359 20.8358Z" fill="#0C30EF"/>
<path d="M132.184 12.4664C130.749 12.4664 129.518 13.13 128.925 14.0815V12.8045H125.977V23.3929H129.066V18.1409C129.066 16.2505 130.138 15.3522 131.315 15.3522C132.491 15.3522 133.246 16.0251 133.246 17.781V23.3929H136.336V17.7121C136.336 14.4383 135.012 12.4696 132.184 12.4696V12.4664Z" fill="#0C30EF"/>
<path d="M145.399 8.98914V12.9046L145.457 14.0689C144.957 13.3209 143.851 12.4633 142.38 12.4633C139.321 12.4633 137.396 15.0048 137.396 18.0971C137.396 21.1894 139.379 23.7372 142.349 23.7372C143.943 23.7372 144.975 22.8702 145.537 22.0502V23.3866H148.47V8.98914H145.399ZM142.92 20.8483C141.416 20.8483 140.433 19.6495 140.433 18.0971C140.433 16.5447 141.495 15.3553 142.92 15.3553C144.345 15.3553 145.417 16.5635 145.417 18.0971C145.417 19.6308 144.321 20.8483 142.92 20.8483Z" fill="#0C30EF"/>
<path d="M166.47 9.48999L164.176 17.515L163.829 19.0362H163.798L163.525 17.6058L161.35 9.48999H157.997L155.813 17.6371L155.583 19.0362H155.53L155.22 17.6653L152.877 9.48999H149.526L153.897 23.3898H156.955L159.679 13.9063L162.397 23.3898H165.456L169.826 9.48999H166.467H166.47Z" fill="#0C30EF"/>
<path d="M177.013 12.8014V14.1598C176.383 13.0737 175.149 12.4634 173.616 12.4634C170.877 12.4634 168.85 15.0048 168.85 18.0972C168.85 21.1895 170.846 23.7372 173.631 23.7372C175.149 23.7372 176.371 23.1269 177.004 22.0502V23.3867H179.94V12.7983H177.01L177.013 12.8014ZM174.387 20.8358C173.069 20.8358 171.909 19.8937 171.909 18.0972C171.909 16.3006 173.033 15.3554 174.396 15.3554C175.76 15.3554 176.884 16.5729 176.884 18.0972C176.884 19.6214 175.8 20.8358 174.387 20.8358Z" fill="#0C30EF"/>
<path d="M188.711 12.8233L186.788 18.2098L186.506 19.4555L186.217 18.2098L184.248 12.8139H180.999L184.85 22.7388L184.709 23.1394C184.39 24.0502 183.984 24.4352 183.023 24.4352H181.288V27.0142H183.084C185.44 27.0142 186.736 26.5447 188.01 23.2114L192 12.8076L188.711 12.8295V12.8233Z" fill="#0C30EF"/>
<path d="M41.887 0L37.4707 19.5775H36.3098L38.6868 0H24.9774L20.5611 19.5775H19.4002L21.7773 0H6.22822L0 36H24.4983L27.3268 23.4491H28.4907L26.9675 36H51.5118L57.74 0H41.887Z" fill="#0C30EF"/>
</g>
<defs>
<clipPath id="clip0_11_300">
<rect width="192" height="36" fill="white"/>
</clipPath>
</defs>
</svg>
