<svg width="16" height="17" viewBox="0 0 16 17" fill="none" xmlns="http://www.w3.org/2000/svg">
<path d="M14.7184 11.1291C13.7385 11.1291 12.7764 10.9758 11.8646 10.6744C11.4178 10.522 10.8686 10.6618 10.596 10.9419L8.79635 12.3009C6.70931 11.1865 5.42374 9.90091 4.32489 7.82891L5.64343 6.07564C5.986 5.73343 6.10887 5.23353 5.96166 4.76449C5.65906 3.84767 5.50535 2.88569 5.50535 1.90508C5.50539 1.19668 4.92925 0.620361 4.22111 0.620361H1.28184C0.573699 0.620361 -0.00244141 1.19668 -0.00244141 1.90504C-0.00244141 10.0247 6.60123 16.6304 14.7184 16.6304C15.4265 16.6304 16.0027 16.054 16.0027 15.3457V12.4137C16.0026 11.7054 15.4265 11.1291 14.7184 11.1291Z" fill="white"/>
</svg>
