<svg width="124" height="22" viewBox="0 0 124 22" fill="none" xmlns="http://www.w3.org/2000/svg">
<path d="M61.3292 8.91582C58.8017 8.91582 56.7367 10.6931 56.7367 13.1452C56.7367 15.5773 58.8017 17.3732 61.3292 17.3732C63.8621 17.3732 65.9268 15.5773 65.9268 13.1452C65.9268 10.6931 63.8621 8.91582 61.3292 8.91582ZM61.3292 15.7079C59.9423 15.7079 58.7491 14.6502 58.7491 13.1452C58.7491 11.6202 59.9423 10.5812 61.3292 10.5812C62.716 10.5812 63.9145 11.6202 63.9145 13.1452C63.9145 14.6502 62.716 15.7079 61.3292 15.7079ZM51.309 8.91582C48.7762 8.91582 46.7167 10.6931 46.7167 13.1452C46.7167 15.5773 48.7762 17.3732 51.309 17.3732C53.8406 17.3732 55.9015 15.5773 55.9015 13.1452C55.9015 10.6931 53.8406 8.91582 51.309 8.91582ZM51.309 15.7079C49.9208 15.7079 48.7238 14.6502 48.7238 13.1452C48.7238 11.6202 49.9208 10.5812 51.309 10.5812C52.696 10.5812 53.8892 11.6202 53.8892 13.1452C53.8892 14.6502 52.696 15.7079 51.309 15.7079ZM39.3856 10.2122V12.0093H44.0305C43.8946 13.0135 43.5315 13.7516 42.9745 14.2662C42.2965 14.8877 41.2406 15.5773 39.3856 15.5773C36.5272 15.5773 34.2888 13.446 34.2888 10.8049C34.2888 8.16397 36.5272 6.0326 39.3856 6.0326C40.9312 6.0326 42.0558 6.59058 42.8857 7.31393L44.2564 6.04751C43.0955 5.02339 41.5513 4.23669 39.3856 4.23669C35.4659 4.23669 32.1716 7.18341 32.1716 10.8049C32.1716 14.4265 35.4659 17.3732 39.3856 17.3732C41.5043 17.3732 43.0955 16.732 44.3466 15.5289C45.6286 14.3444 46.028 12.6791 46.028 11.3344C46.028 10.9168 45.9904 10.5328 45.9231 10.2122H39.3856ZM88.1421 11.6053C87.7641 10.6596 86.5979 8.91582 84.2223 8.91582C81.8683 8.91582 79.9085 10.6298 79.9085 13.1452C79.9085 15.514 81.8481 17.3732 84.4484 17.3732C86.5508 17.3732 87.7641 16.1888 88.2632 15.4991L86.7027 14.5383C86.1822 15.2417 85.4734 15.7079 84.4484 15.7079C83.43 15.7079 82.6996 15.2766 82.2315 14.4265L88.3532 12.0862L88.1421 11.6053ZM81.9006 13.0135C81.8481 11.3828 83.2713 10.5477 84.291 10.5477C85.09 10.5477 85.7679 10.9168 85.9939 11.445L81.9006 13.0135ZM76.9249 17.1159H78.9372V4.68792H76.9249V17.1159ZM73.6292 9.858H73.5619C73.1101 9.36336 72.2478 8.91582 71.1554 8.91582C68.8633 8.91582 66.7677 10.7751 66.7677 13.1588C66.7677 15.5289 68.8633 17.3732 71.1554 17.3732C72.2478 17.3732 73.1101 16.922 73.5619 16.4125H73.6292V17.019C73.6292 18.636 72.6944 19.5046 71.1865 19.5046C69.957 19.5046 69.1943 18.6844 68.8796 17.9946L67.1295 18.6695C67.6338 19.7905 68.9696 21.17 71.1865 21.17C73.5458 21.17 75.5367 19.8875 75.5367 16.7667V9.17318H73.6292V9.858ZM71.3277 15.7079C69.9409 15.7079 68.78 14.6353 68.78 13.1588C68.78 11.6687 69.9409 10.5812 71.3277 10.5812C72.6944 10.5812 73.7718 11.6687 73.7718 13.1588C73.7718 14.6353 72.6944 15.7079 71.3277 15.7079ZM97.5636 4.68792H92.7507V17.1159H94.7575V12.4069H97.5636C99.7925 12.4069 101.978 10.9168 101.978 8.54684C101.978 6.17804 99.7871 4.68792 97.5636 4.68792ZM97.616 10.6782H94.7575V6.41664H97.616C99.1146 6.41664 99.9701 7.56627 99.9701 8.54684C99.9701 9.50865 99.1146 10.6782 97.616 10.6782ZM110.022 8.89234C108.572 8.89234 107.064 9.48384 106.444 10.795L108.225 11.4848C108.609 10.795 109.314 10.5713 110.059 10.5713C111.1 10.5713 112.156 11.1492 112.172 12.1695V12.3C111.809 12.1062 111.031 11.8191 110.075 11.8191C108.157 11.8191 106.202 12.7947 106.202 14.6154C106.202 16.2808 107.773 17.3533 109.539 17.3533C110.89 17.3533 111.635 16.7903 112.103 16.1353H112.172V17.0961H114.11V12.3287C114.11 10.1251 112.329 8.89234 110.022 8.89234ZM109.78 15.7028C109.124 15.7028 108.209 15.4021 108.209 14.6502C108.209 13.6883 109.35 13.3191 110.337 13.3191C111.221 13.3191 111.635 13.4994 112.172 13.7367C112.015 14.8877 110.943 15.7028 109.78 15.7028ZM121.172 9.16447L118.865 14.552H118.797L116.412 9.16447H114.248L117.831 16.6935L115.786 20.883H117.883L123.405 9.16447H121.172ZM103.081 17.1159H105.094V4.68792H103.081V17.1159Z" fill="white"/>
<path d="M0.495921 0.828046C0.214284 1.14785 0.0718279 1.55714 0.0975731 1.97276V20.0275C0.0732322 20.443 0.215532 20.8517 0.495921 21.1723L0.561143 21.234L11.2452 11.1166V10.8767L0.561143 0.766357L0.495921 0.828046Z" fill="url(#paint0_linear_26_1290)"/>
<path d="M14.8086 14.4892L11.2449 11.1168V10.8768L14.8086 7.51123L14.8882 7.55243L19.1112 9.82127C20.3209 10.4656 20.3209 11.528 19.1112 12.1791L14.8882 14.448L14.8086 14.4892Z" fill="url(#paint1_linear_26_1290)"/>
<path d="M14.8895 14.4491L11.2678 11.022L0.496826 21.1734C0.745072 21.3665 1.05417 21.4761 1.37544 21.4848C1.69671 21.4935 2.01189 21.4008 2.27153 21.2214L14.8678 14.4491" fill="url(#paint2_linear_26_1290)"/>
<path d="M14.8892 7.55324L2.27129 0.774132C2.01446 0.58735 1.69725 0.490695 1.37348 0.500706C1.04987 0.510703 0.739835 0.626729 0.496582 0.82897L11.2459 11.0011L14.8892 7.55324Z" fill="url(#paint3_linear_26_1290)"/>
<path opacity="0.1" d="M14.8067 14.3739L2.26832 21.105C2.0182 21.2814 1.71456 21.3766 1.40265 21.3766C1.09075 21.3766 0.787108 21.2814 0.537146 21.105L0.471924 21.1667L0.537146 21.2284C0.787108 21.4047 1.09075 21.4999 1.40265 21.4999C1.71456 21.4999 2.0182 21.4047 2.26832 21.2284L14.8646 14.4561L14.8067 14.3739Z" fill="white"/>
<path opacity="0.07" d="M0.495849 21.0639C0.214993 20.741 0.0726934 20.3299 0.0973463 19.9124V20.0289C0.0731615 20.4442 0.215461 20.8531 0.495849 21.1735L0.561071 21.1119L0.495849 21.0639Z" fill="white"/>
<path opacity="0.07" d="M19.1105 12.0558L14.808 14.3726L14.8876 14.4481L19.1105 12.1518C19.3582 12.0487 19.5726 11.8852 19.7317 11.6781C19.8907 11.4709 19.9888 11.2276 20.016 10.9729C19.9665 11.2083 19.8587 11.4293 19.7013 11.6177C19.5438 11.806 19.3413 11.9561 19.1105 12.0558Z" fill="white"/>
<path opacity="0.3" d="M2.27058 0.897218L19.1116 9.93829C19.3401 10.0356 19.5412 10.1825 19.6986 10.3671C19.8559 10.5516 19.965 10.7687 20.0169 11.0008C19.9913 10.7455 19.8938 10.5016 19.7345 10.2941C19.5754 10.0868 19.3602 9.92367 19.1116 9.82179L2.27058 0.773839C1.08271 0.129525 0.0975342 0.664177 0.0975342 1.97337V2.0899C0.0975342 0.787557 1.08271 0.246053 2.27058 0.897218Z" fill="#1D2331"/>
<defs>
<linearGradient id="paint0_linear_26_1290" x1="10.3036" y1="1.78082" x2="-3.37779" y2="16.2385" gradientUnits="userSpaceOnUse">
<stop stop-color="#008EFF"/>
<stop offset="0.01" stop-color="#008FFF"/>
<stop offset="0.26" stop-color="#00ACFF"/>
<stop offset="0.51" stop-color="#00C0FF"/>
<stop offset="0.76" stop-color="#00CDFF"/>
<stop offset="1" stop-color="#00D1FF"/>
</linearGradient>
<linearGradient id="paint1_linear_26_1290" x1="19.256" y1="11.0003" x2="-1.61943" y2="11.0003" gradientUnits="userSpaceOnUse">
<stop stop-color="#FFD800"/>
<stop offset="1" stop-color="#FF8A00"/>
</linearGradient>
<linearGradient id="paint2_linear_26_1290" x1="12.9121" y1="12.8727" x2="-5.63532" y2="32.4725" gradientUnits="userSpaceOnUse">
<stop stop-color="#FF3A44"/>
<stop offset="1" stop-color="#B11162"/>
</linearGradient>
<linearGradient id="paint3_linear_26_1290" x1="-2.21244" y1="-5.18242" x2="6.07608" y2="3.5692" gradientUnits="userSpaceOnUse">
<stop stop-color="#328E71"/>
<stop offset="0.07" stop-color="#2D9571"/>
<stop offset="0.48" stop-color="#15BD74"/>
<stop offset="0.8" stop-color="#06D575"/>
<stop offset="1" stop-color="#00DE76"/>
</linearGradient>
</defs>
</svg>
