<svg width="56" height="56" viewBox="0 0 56 56" fill="none" xmlns="http://www.w3.org/2000/svg">
<g clip-path="url(#clip0_11_87)">
<path d="M44.2585 25.3161L38.459 15.2649C37.5055 13.6061 35.716 12.5742 33.8025 12.5742H22.2035C20.2834 12.5742 18.5005 13.6061 17.5404 15.2649L11.7409 25.3161C10.7809 26.9749 10.7809 29.0387 11.7409 30.6976L17.5404 40.7356C18.5004 42.3944 20.2833 43.4263 22.2035 43.4263H33.8024C35.716 43.4263 37.5054 42.3944 38.4589 40.7356L44.2584 30.6976C45.2185 29.0387 45.2185 26.9749 44.2585 25.3161ZM28.0029 34.1001C24.6395 34.1001 21.9031 31.3637 21.9031 28.0003C21.9031 24.6369 24.6395 21.9004 28.0029 21.9004C31.3663 21.9004 34.0963 24.6369 34.0963 28.0003C34.0963 31.3637 31.3664 34.1001 28.0029 34.1001Z" fill="#FCFF61"/>
</g>
<defs>
<clipPath id="clip0_11_87">
<rect width="34" height="34" fill="white" transform="translate(10.9999 11)"/>
</clipPath>
</defs>
</svg>
