<svg width="56" height="56" viewBox="0 0 56 56" fill="none" xmlns="http://www.w3.org/2000/svg">
<g clip-path="url(#clip0_11_71)">
<path d="M47.413 31.3273C45.8979 31.3273 44.6678 32.5604 44.6678 34.0851C44.6678 35.6108 45.8979 36.8459 47.413 36.8459C48.9229 36.8459 50.1571 35.6108 50.1571 34.0851C50.1571 32.5625 48.9269 31.3273 47.413 31.3273ZM47.4109 35.2935C46.7473 35.2935 46.2042 34.7524 46.2042 34.082C46.2042 33.4187 46.7422 32.8725 47.4109 32.8725C48.0704 32.8725 48.6156 33.4136 48.6156 34.082C48.6156 34.7524 48.0755 35.2935 47.4109 35.2935ZM41.0068 31.3273C39.4959 31.3273 38.2647 32.5604 38.2647 34.0851C38.2647 35.6108 39.4928 36.8459 41.0068 36.8459C42.5218 36.8459 43.752 35.6108 43.752 34.0851C43.75 32.5625 42.5218 31.3273 41.0068 31.3273ZM41.0068 35.2935C40.3473 35.2935 39.8042 34.7524 39.8042 34.082C39.8042 33.4187 40.3443 32.8725 41.0068 32.8725C41.6725 32.8725 42.2094 33.4136 42.2094 34.082C42.2094 34.7524 41.6704 35.2935 41.0068 35.2935ZM34.516 31.3273C33.001 31.3273 31.7708 32.5604 31.7708 34.0851C31.7708 35.6108 32.9989 36.8459 34.516 36.8459C36.0259 36.8459 37.2581 35.6108 37.2581 34.0851C37.2581 32.5625 36.03 31.3273 34.516 31.3273ZM34.516 35.2935C33.8524 35.2935 33.3052 34.7524 33.3052 34.082C33.3052 33.4187 33.8453 32.8725 34.516 32.8725C35.1755 32.8725 35.7186 33.4136 35.7186 34.082C35.7186 34.7524 35.1806 35.2935 34.516 35.2935ZM6.68639 21.5777C6.68639 21.5777 8.32084 20.0869 11.2814 18.745V21.5777H6.68639ZM11.6071 18.5612V22.2019C11.5275 22.2019 11.454 22.2019 11.3774 22.2019V32.699V33.4475H31.2001C31.537 31.8972 32.9111 30.7318 34.5456 30.7318C36.0565 30.7318 37.3326 31.7124 37.7982 33.0717C38.2586 31.7144 39.5367 30.7318 41.0426 30.7318C42.5045 30.7318 43.75 31.6538 44.2472 32.9536C44.7413 31.6538 45.9857 30.7318 47.4517 30.7318C49.0893 30.7318 50.4685 31.8972 50.8013 33.4475H53.6231V30.0542H54.5V18.5612H11.6071ZM52.8451 31.7729H52.4184V30.0563H52.8451V31.7729ZM2.50276 33.082C2.4609 33.275 2.43436 33.4773 2.43436 33.6816C2.43436 33.8541 2.4558 34.0204 2.49051 34.1847H1V33.082H2.50276ZM9.92262 33.082H11.0701V34.1826H9.93998C9.96142 34.0204 9.97979 33.852 9.97979 33.6816C9.97877 33.4752 9.95427 33.274 9.92262 33.082ZM31.1583 33.6816C31.1368 33.8459 31.1205 34.0142 31.1205 34.1847C31.1205 34.2894 31.1287 34.3869 31.1348 34.4917H11.3794V33.6816H31.1583ZM50.8411 33.6816H53.9252V34.4896H50.8646C50.8728 34.3869 50.8809 34.2873 50.8809 34.1847C50.8809 34.0142 50.8646 33.8459 50.8411 33.6816ZM1.09903 27.1774V28.3889L1.09801 32.776H2.76819C3.17246 31.1815 4.6058 29.9988 6.31784 29.9988C8.0258 29.9988 9.45607 31.1774 9.86341 32.776H11.0936V22.1855H3.36541L1.09903 27.1774ZM10.2473 22.9904V25.6137H7.26523L5.05908 27.4792H2.11073L3.75029 22.9904H10.2473ZM6.32805 31.1271C4.70279 31.1251 3.38481 32.4506 3.38481 34.0851C3.38481 35.7196 4.70279 37.043 6.32805 37.043C7.95127 37.043 9.26925 35.7217 9.26925 34.0851C9.26721 32.4506 7.94923 31.1271 6.32805 31.1271ZM6.32805 35.3818C5.61445 35.3818 5.0356 34.8007 5.0356 34.082C5.0356 33.3684 5.60934 32.7842 6.32805 32.7842C7.03961 32.7842 7.61744 33.3633 7.61744 34.082C7.61744 34.8007 7.03961 35.3818 6.32805 35.3818Z" fill="#FCFF61"/>
</g>
<defs>
<clipPath id="clip0_11_71">
<rect width="53.5" height="53.5" fill="white" transform="translate(1 1)"/>
</clipPath>
</defs>
</svg>
